<svg width="226" height="46" viewBox="0 0 226 46" fill="none" xmlns="http://www.w3.org/2000/svg">
<rect width="45.1448" height="45.1448" rx="22.5724" fill="url(#paint0_linear_7_33)"/>
<circle cx="22.5724" cy="22.5724" r="22.5724" fill="url(#paint1_radial_7_33)"/>
<path fill-rule="evenodd" clip-rule="evenodd" d="M26.5145 37.0991C25.2581 37.4392 23.9365 37.6207 22.5724 37.6207C14.2615 37.6207 7.52417 30.8834 7.52417 22.5724C7.52417 14.2615 14.2615 7.52417 22.5724 7.52417C30.8834 7.52417 37.6207 14.2615 37.6207 22.5724C37.6207 23.9364 37.4392 25.258 37.0991 26.5144C35.8045 25.4611 34.1529 24.8296 32.3539 24.8296C31.9954 24.8296 31.6428 24.8547 31.2978 24.9032C31.4959 24.1596 31.6015 23.3784 31.6015 22.5724C31.6015 17.5859 27.5591 13.5435 22.5725 13.5435C17.586 13.5435 13.5436 17.5859 13.5436 22.5724C13.5436 27.559 17.586 31.6014 22.5725 31.6014C23.3785 31.6014 24.1597 31.4958 24.9033 31.2977C24.8548 31.6428 24.8297 31.9953 24.8297 32.3538C24.8297 34.1529 25.4612 35.8045 26.5145 37.0991Z" fill="white"/>
<circle cx="32.3538" cy="32.3538" r="5.26689" fill="white"/>
<path d="M79.45 29.74H86.29V34H73.75L79.45 29.74ZM62.5 22.99C62.5 21.47 62.79 20.03 63.37 18.67C63.95 17.31 64.75 16.11 65.77 15.07C66.81 14.01 68.01 13.18 69.37 12.58C70.73 11.98 72.19 11.68 73.75 11.68C75.29 11.68 76.74 11.98 78.1 12.58C79.46 13.18 80.66 14.01 81.7 15.07C82.76 16.11 83.58 17.31 84.16 18.67C84.76 20.03 85.06 21.47 85.06 22.99C85.06 24.55 84.76 26.01 84.16 27.37C83.58 28.73 82.76 29.93 81.7 30.97C80.66 31.99 79.46 32.79 78.1 33.37C76.74 33.95 75.29 34.24 73.75 34.24C72.19 34.24 70.73 33.95 69.37 33.37C68.01 32.79 66.81 31.99 65.77 30.97C64.75 29.93 63.95 28.73 63.37 27.37C62.79 26.01 62.5 24.55 62.5 22.99ZM67 22.99C67 23.95 67.17 24.86 67.51 25.72C67.87 26.56 68.36 27.31 68.98 27.97C69.62 28.61 70.35 29.11 71.17 29.47C72.01 29.83 72.92 30.01 73.9 30.01C74.84 30.01 75.71 29.83 76.51 29.47C77.33 29.11 78.04 28.61 78.64 27.97C79.24 27.33 79.71 26.59 80.05 25.75C80.39 24.89 80.56 23.97 80.56 22.99C80.56 22.03 80.38 21.13 80.02 20.29C79.68 19.43 79.2 18.68 78.58 18.04C77.98 17.4 77.27 16.9 76.45 16.54C75.63 16.18 74.74 16 73.78 16C72.82 16 71.93 16.18 71.11 16.54C70.29 16.9 69.57 17.4 68.95 18.04C68.33 18.68 67.85 19.43 67.51 20.29C67.17 21.13 67 22.03 67 22.99ZM96.0273 25.84C96.0273 26.54 96.2373 27.21 96.6573 27.85C97.0773 28.49 97.6273 29.01 98.3073 29.41C99.0073 29.81 99.7673 30.01 100.587 30.01C101.487 30.01 102.287 29.81 102.987 29.41C103.687 29.01 104.237 28.49 104.637 27.85C105.057 27.21 105.267 26.54 105.267 25.84V11.92H109.557V25.93C109.557 27.55 109.157 28.99 108.357 30.25C107.557 31.49 106.477 32.47 105.117 33.19C103.757 33.89 102.247 34.24 100.587 34.24C98.9473 34.24 97.4473 33.89 96.0873 33.19C94.7473 32.47 93.6773 31.49 92.8773 30.25C92.0773 28.99 91.6773 27.55 91.6773 25.93V11.92H96.0273V25.84ZM113.227 34L123.187 11.05H123.427L133.387 34H128.347L121.987 17.86L125.137 15.7L117.517 34H113.227ZM120.037 26.02H126.667L128.197 29.68H118.687L120.037 26.02ZM157.876 34.9L141.136 19.78L142.426 20.5L142.516 34H138.106V11.05H138.286L154.666 26.11L153.706 25.69L153.616 11.92H157.996V34.9H157.876ZM163.682 11.92H178.562V16.12H173.192V34H168.842V16.12H163.682V11.92ZM182.148 22.99C182.148 21.47 182.438 20.03 183.018 18.67C183.598 17.31 184.398 16.11 185.418 15.07C186.458 14.01 187.658 13.18 189.018 12.58C190.378 11.98 191.838 11.68 193.398 11.68C194.938 11.68 196.388 11.98 197.748 12.58C199.108 13.18 200.308 14.01 201.348 15.07C202.408 16.11 203.228 17.31 203.808 18.67C204.408 20.03 204.708 21.47 204.708 22.99C204.708 24.55 204.408 26.01 203.808 27.37C203.228 28.73 202.408 29.93 201.348 30.97C200.308 31.99 199.108 32.79 197.748 33.37C196.388 33.95 194.938 34.24 193.398 34.24C191.838 34.24 190.378 33.95 189.018 33.37C187.658 32.79 186.458 31.99 185.418 30.97C184.398 29.93 183.598 28.73 183.018 27.37C182.438 26.01 182.148 24.55 182.148 22.99ZM186.648 22.99C186.648 23.97 186.818 24.89 187.158 25.75C187.518 26.59 188.008 27.34 188.628 28C189.268 28.64 189.998 29.14 190.818 29.5C191.658 29.86 192.568 30.04 193.548 30.04C194.488 30.04 195.358 29.86 196.158 29.5C196.978 29.14 197.688 28.64 198.288 28C198.888 27.34 199.358 26.59 199.698 25.75C200.038 24.89 200.208 23.97 200.208 22.99C200.208 21.99 200.028 21.06 199.668 20.2C199.328 19.34 198.848 18.59 198.228 17.95C197.628 17.29 196.918 16.78 196.098 16.42C195.278 16.06 194.388 15.88 193.428 15.88C192.468 15.88 191.578 16.06 190.758 16.42C189.938 16.78 189.218 17.29 188.598 17.95C187.978 18.59 187.498 19.34 187.158 20.2C186.818 21.06 186.648 21.99 186.648 22.99ZM222.335 17.26C221.495 16.8 220.635 16.42 219.755 16.12C218.895 15.82 218.085 15.67 217.325 15.67C216.385 15.67 215.645 15.86 215.105 16.24C214.565 16.62 214.295 17.19 214.295 17.95C214.295 18.47 214.495 18.94 214.895 19.36C215.315 19.76 215.845 20.12 216.485 20.44C217.145 20.76 217.825 21.05 218.525 21.31C219.165 21.55 219.795 21.84 220.415 22.18C221.055 22.5 221.625 22.91 222.125 23.41C222.625 23.89 223.025 24.5 223.325 25.24C223.625 25.96 223.775 26.85 223.775 27.91C223.775 29.03 223.485 30.07 222.905 31.03C222.325 31.99 221.475 32.77 220.355 33.37C219.235 33.95 217.855 34.24 216.215 34.24C215.375 34.24 214.515 34.16 213.635 34C212.775 33.82 211.925 33.56 211.085 33.22C210.245 32.86 209.435 32.41 208.655 31.87L210.575 28.48C211.095 28.86 211.655 29.2 212.255 29.5C212.875 29.78 213.495 30 214.115 30.16C214.735 30.32 215.305 30.4 215.825 30.4C216.345 30.4 216.865 30.33 217.385 30.19C217.925 30.03 218.365 29.77 218.705 29.41C219.065 29.05 219.245 28.55 219.245 27.91C219.245 27.47 219.095 27.07 218.795 26.71C218.515 26.35 218.125 26.02 217.625 25.72C217.145 25.42 216.615 25.16 216.035 24.94C215.355 24.68 214.655 24.38 213.935 24.04C213.215 23.7 212.535 23.29 211.895 22.81C211.275 22.31 210.765 21.7 210.365 20.98C209.985 20.24 209.795 19.34 209.795 18.28C209.795 17 210.075 15.89 210.635 14.95C211.215 14.01 212.025 13.27 213.065 12.73C214.105 12.17 215.305 11.86 216.665 11.8C218.445 11.8 219.885 12.01 220.985 12.43C222.105 12.85 223.105 13.35 223.985 13.93L222.335 17.26Z" fill="#EBEBEB"/>
<defs>
<linearGradient id="paint0_linear_7_33" x1="38.5236" y1="6.77172" x2="6.77172" y2="38.6741" gradientUnits="userSpaceOnUse">
<stop stop-color="#80F1EF"/>
<stop offset="0.5" stop-color="#2EB6E8"/>
<stop offset="1" stop-color="#F1B6E8"/>
</linearGradient>
<radialGradient id="paint1_radial_7_33" cx="0" cy="0" r="1" gradientUnits="userSpaceOnUse" gradientTransform="translate(10.8348 22.5724) scale(23.7763)">
<stop stop-color="white" stop-opacity="0.52"/>
<stop offset="1" stop-color="#D9D9D9" stop-opacity="0"/>
</radialGradient>
</defs>
</svg>
