<svg width="226" height="46" viewBox="0 0 226 46" fill="none" xmlns="http://www.w3.org/2000/svg">
<rect y="0.144775" width="45.1448" height="45.1448" rx="22.5724" fill="url(#paint0_linear_36_31)"/>
<circle cx="22.5724" cy="22.7172" r="22.5724" fill="url(#paint1_radial_36_31)"/>
<path fill-rule="evenodd" clip-rule="evenodd" d="M26.5145 37.2439C25.2581 37.584 23.9365 37.7655 22.5724 37.7655C14.2615 37.7655 7.52417 31.0281 7.52417 22.7172C7.52417 14.4063 14.2615 7.66895 22.5724 7.66895C30.8834 7.66895 37.6207 14.4063 37.6207 22.7172C37.6207 24.0812 37.4392 25.4028 37.0991 26.6591C35.8045 25.6058 34.1529 24.9744 32.3539 24.9744C31.9954 24.9744 31.6428 24.9995 31.2978 25.0479C31.4959 24.3044 31.6015 23.5231 31.6015 22.7172C31.6015 17.7306 27.5591 13.6882 22.5725 13.6882C17.586 13.6882 13.5436 17.7306 13.5436 22.7172C13.5436 27.7038 17.586 31.7462 22.5725 31.7462C23.3785 31.7462 24.1597 31.6406 24.9033 31.4425C24.8548 31.7875 24.8297 32.1401 24.8297 32.4985C24.8297 34.2976 25.4612 35.9493 26.5145 37.2439Z" fill="white"/>
<circle cx="32.3538" cy="32.4986" r="5.26689" fill="white"/>
<path d="M79.45 29.8848H86.29V34.1448H73.75L79.45 29.8848ZM62.5 23.1348C62.5 21.6148 62.79 20.1748 63.37 18.8148C63.95 17.4548 64.75 16.2548 65.77 15.2148C66.81 14.1548 68.01 13.3248 69.37 12.7248C70.73 12.1248 72.19 11.8248 73.75 11.8248C75.29 11.8248 76.74 12.1248 78.1 12.7248C79.46 13.3248 80.66 14.1548 81.7 15.2148C82.76 16.2548 83.58 17.4548 84.16 18.8148C84.76 20.1748 85.06 21.6148 85.06 23.1348C85.06 24.6948 84.76 26.1548 84.16 27.5148C83.58 28.8748 82.76 30.0748 81.7 31.1148C80.66 32.1348 79.46 32.9348 78.1 33.5148C76.74 34.0948 75.29 34.3848 73.75 34.3848C72.19 34.3848 70.73 34.0948 69.37 33.5148C68.01 32.9348 66.81 32.1348 65.77 31.1148C64.75 30.0748 63.95 28.8748 63.37 27.5148C62.79 26.1548 62.5 24.6948 62.5 23.1348ZM67 23.1348C67 24.0948 67.17 25.0048 67.51 25.8648C67.87 26.7048 68.36 27.4548 68.98 28.1148C69.62 28.7548 70.35 29.2548 71.17 29.6148C72.01 29.9748 72.92 30.1548 73.9 30.1548C74.84 30.1548 75.71 29.9748 76.51 29.6148C77.33 29.2548 78.04 28.7548 78.64 28.1148C79.24 27.4748 79.71 26.7348 80.05 25.8948C80.39 25.0348 80.56 24.1148 80.56 23.1348C80.56 22.1748 80.38 21.2748 80.02 20.4348C79.68 19.5748 79.2 18.8248 78.58 18.1848C77.98 17.5448 77.27 17.0448 76.45 16.6848C75.63 16.3248 74.74 16.1448 73.78 16.1448C72.82 16.1448 71.93 16.3248 71.11 16.6848C70.29 17.0448 69.57 17.5448 68.95 18.1848C68.33 18.8248 67.85 19.5748 67.51 20.4348C67.17 21.2748 67 22.1748 67 23.1348ZM96.0273 25.9848C96.0273 26.6848 96.2373 27.3548 96.6573 27.9948C97.0773 28.6348 97.6273 29.1548 98.3073 29.5548C99.0073 29.9548 99.7673 30.1548 100.587 30.1548C101.487 30.1548 102.287 29.9548 102.987 29.5548C103.687 29.1548 104.237 28.6348 104.637 27.9948C105.057 27.3548 105.267 26.6848 105.267 25.9848V12.0648H109.557V26.0748C109.557 27.6948 109.157 29.1348 108.357 30.3948C107.557 31.6348 106.477 32.6148 105.117 33.3348C103.757 34.0348 102.247 34.3848 100.587 34.3848C98.9473 34.3848 97.4473 34.0348 96.0873 33.3348C94.7473 32.6148 93.6773 31.6348 92.8773 30.3948C92.0773 29.1348 91.6773 27.6948 91.6773 26.0748V12.0648H96.0273V25.9848ZM113.227 34.1448L123.187 11.1948H123.427L133.387 34.1448H128.347L121.987 18.0048L125.137 15.8448L117.517 34.1448H113.227ZM120.037 26.1648H126.667L128.197 29.8248H118.687L120.037 26.1648ZM157.876 35.0448L141.136 19.9248L142.426 20.6448L142.516 34.1448H138.106V11.1948H138.286L154.666 26.2548L153.706 25.8348L153.616 12.0648H157.996V35.0448H157.876ZM163.682 12.0648H178.562V16.2648H173.192V34.1448H168.842V16.2648H163.682V12.0648ZM182.148 23.1348C182.148 21.6148 182.438 20.1748 183.018 18.8148C183.598 17.4548 184.398 16.2548 185.418 15.2148C186.458 14.1548 187.658 13.3248 189.018 12.7248C190.378 12.1248 191.838 11.8248 193.398 11.8248C194.938 11.8248 196.388 12.1248 197.748 12.7248C199.108 13.3248 200.308 14.1548 201.348 15.2148C202.408 16.2548 203.228 17.4548 203.808 18.8148C204.408 20.1748 204.708 21.6148 204.708 23.1348C204.708 24.6948 204.408 26.1548 203.808 27.5148C203.228 28.8748 202.408 30.0748 201.348 31.1148C200.308 32.1348 199.108 32.9348 197.748 33.5148C196.388 34.0948 194.938 34.3848 193.398 34.3848C191.838 34.3848 190.378 34.0948 189.018 33.5148C187.658 32.9348 186.458 32.1348 185.418 31.1148C184.398 30.0748 183.598 28.8748 183.018 27.5148C182.438 26.1548 182.148 24.6948 182.148 23.1348ZM186.648 23.1348C186.648 24.1148 186.818 25.0348 187.158 25.8948C187.518 26.7348 188.008 27.4848 188.628 28.1448C189.268 28.7848 189.998 29.2848 190.818 29.6448C191.658 30.0048 192.568 30.1848 193.548 30.1848C194.488 30.1848 195.358 30.0048 196.158 29.6448C196.978 29.2848 197.688 28.7848 198.288 28.1448C198.888 27.4848 199.358 26.7348 199.698 25.8948C200.038 25.0348 200.208 24.1148 200.208 23.1348C200.208 22.1348 200.028 21.2048 199.668 20.3448C199.328 19.4848 198.848 18.7348 198.228 18.0948C197.628 17.4348 196.918 16.9248 196.098 16.5648C195.278 16.2048 194.388 16.0248 193.428 16.0248C192.468 16.0248 191.578 16.2048 190.758 16.5648C189.938 16.9248 189.218 17.4348 188.598 18.0948C187.978 18.7348 187.498 19.4848 187.158 20.3448C186.818 21.2048 186.648 22.1348 186.648 23.1348ZM222.335 17.4048C221.495 16.9448 220.635 16.5648 219.755 16.2648C218.895 15.9648 218.085 15.8148 217.325 15.8148C216.385 15.8148 215.645 16.0048 215.105 16.3848C214.565 16.7648 214.295 17.3348 214.295 18.0948C214.295 18.6148 214.495 19.0848 214.895 19.5048C215.315 19.9048 215.845 20.2648 216.485 20.5848C217.145 20.9048 217.825 21.1948 218.525 21.4548C219.165 21.6948 219.795 21.9848 220.415 22.3248C221.055 22.6448 221.625 23.0548 222.125 23.5548C222.625 24.0348 223.025 24.6448 223.325 25.3848C223.625 26.1048 223.775 26.9948 223.775 28.0548C223.775 29.1748 223.485 30.2148 222.905 31.1748C222.325 32.1348 221.475 32.9148 220.355 33.5148C219.235 34.0948 217.855 34.3848 216.215 34.3848C215.375 34.3848 214.515 34.3048 213.635 34.1448C212.775 33.9648 211.925 33.7048 211.085 33.3648C210.245 33.0048 209.435 32.5548 208.655 32.0148L210.575 28.6248C211.095 29.0048 211.655 29.3448 212.255 29.6448C212.875 29.9248 213.495 30.1448 214.115 30.3048C214.735 30.4648 215.305 30.5448 215.825 30.5448C216.345 30.5448 216.865 30.4748 217.385 30.3348C217.925 30.1748 218.365 29.9148 218.705 29.5548C219.065 29.1948 219.245 28.6948 219.245 28.0548C219.245 27.6148 219.095 27.2148 218.795 26.8548C218.515 26.4948 218.125 26.1648 217.625 25.8648C217.145 25.5648 216.615 25.3048 216.035 25.0848C215.355 24.8248 214.655 24.5248 213.935 24.1848C213.215 23.8448 212.535 23.4348 211.895 22.9548C211.275 22.4548 210.765 21.8448 210.365 21.1248C209.985 20.3848 209.795 19.4848 209.795 18.4248C209.795 17.1448 210.075 16.0348 210.635 15.0948C211.215 14.1548 212.025 13.4148 213.065 12.8748C214.105 12.3148 215.305 12.0048 216.665 11.9448C218.445 11.9448 219.885 12.1548 220.985 12.5748C222.105 12.9948 223.105 13.4948 223.985 14.0748L222.335 17.4048Z" fill="#0A0A0A"/>
<defs>
<linearGradient id="paint0_linear_36_31" x1="38.5236" y1="6.9165" x2="6.77172" y2="38.8188" gradientUnits="userSpaceOnUse">
<stop stop-color="#80F1EF"/>
<stop offset="0.5" stop-color="#2EB6E8"/>
<stop offset="1" stop-color="#F1B6E8"/>
</linearGradient>
<radialGradient id="paint1_radial_36_31" cx="0" cy="0" r="1" gradientUnits="userSpaceOnUse" gradientTransform="translate(10.8348 22.7172) scale(23.7763)">
<stop stop-color="white" stop-opacity="0.52"/>
<stop offset="1" stop-color="#D9D9D9" stop-opacity="0"/>
</radialGradient>
</defs>
</svg>
